# xmcd
#
# Track frame offsets: 
#        150
#        23325
#        54610
#        81192
#        107432
#        135355
#        155150
#        180615
#        208765
#        229875
#        247660
#        258295
#
# Disc length: 3778 seconds
#
# Revision: 2
# Processed by: cddbd v1.5.2PL0 Copyright (c) Steve Scherf et al.
# Submitted via: ExactAudioCopy v1.0b3
#
DISCID=900ec00c
DTITLE=鈴木宏昌 - with my whole heart
DYEAR=1996
DGENRE=Jazz
TTITLE0=All The Things You Are
TTITLE1=My One And Only Love
TTITLE2=Someday My Prince Will Come
TTITLE3=Round About Midnight
TTITLE4=Stella By Starlight
TTITLE5=How Deep Is The Ocean
TTITLE6=Dolphin Dance
TTITLE7=Blue In Green
TTITLE8=Little One
TTITLE9=Again And Again
TTITLE10=Solar
TTITLE11=With My Whole Heart
EXTD=YEAR: 1996
EXTT0=
EXTT1=
EXTT2=
EXTT3=
EXTT4=
EXTT5=
EXTT6=
EXTT7=
EXTT8=
EXTT9=
EXTT10=
EXTT11=
PLAYORDER=
